<svg width="279" height="56" viewBox="0 0 279 56" fill="none" xmlns="http://www.w3.org/2000/svg">
<path d="M38.28 25.5703C39.5353 25.5703 40.5527 24.6086 40.5527 23.4219V8.8125C40.5527 4.07377 36.4747 0.21875 31.4618 0.21875H9.64364C4.63077 0.21875 0.552734 4.07377 0.552734 8.8125V40.1797C0.552734 44.9184 4.63077 48.7734 9.64364 48.7734H10.0982V53.0703C10.0982 54.257 11.1156 55.2188 12.3709 55.2188C13.6262 55.2188 14.6436 54.257 14.6436 53.0703V48.7734H26.5755V53.0703C26.5755 54.257 27.5929 55.2188 28.8482 55.2188C30.1035 55.2188 31.1209 54.257 31.1209 53.0703V48.7734H31.4618C36.4747 48.7734 40.5527 44.9184 40.5527 40.1797V34.8086C40.5527 33.7604 39.7528 32.8653 38.66 32.6904C38.3781 32.6451 31.6394 31.5859 20.5527 31.5859C13.4065 31.5859 8.0665 32.0261 5.09819 32.3509V8.8125C5.09819 6.44334 7.13743 4.51562 9.64364 4.51562H31.4618C33.968 4.51562 36.0073 6.44334 36.0073 8.8125V23.4219C36.0073 24.6086 37.0247 25.5703 38.28 25.5703ZM20.5527 35.8828C27.896 35.8828 33.3195 36.3729 36.0073 36.6813V40.1797C36.0073 42.5488 33.968 44.4766 31.4618 44.4766H9.64364C7.13743 44.4766 5.09819 42.5488 5.09819 40.1797V36.6805C7.77974 36.3717 13.1886 35.8828 20.5527 35.8828ZM18.28 40.1797C18.28 38.993 19.2974 38.0312 20.5527 38.0312C21.8081 38.0312 22.8255 38.993 22.8255 40.1797C22.8255 41.3664 21.8081 42.3281 20.5527 42.3281C19.2974 42.3281 18.28 41.3664 18.28 40.1797ZM23.0394 11.1758C23.0394 9.98911 22.022 9.02734 20.7667 9.02734H20.5527C20.0236 9.02734 19.5109 9.2019 19.1034 9.52081C18.3208 10.133 12.8255 15.5322 12.8255 19.9642C12.8255 24.003 16.2918 27.2891 20.5527 27.2891C24.8137 27.2891 28.28 24.003 28.28 19.9642C28.28 17.0697 26.405 15.4563 25.036 14.278C23.7239 13.1488 23.0394 12.498 23.0394 11.1758ZM20.5527 22.9922C18.7985 22.9922 17.3709 21.6339 17.3709 19.9642C17.3709 18.7058 18.5841 16.7873 19.8003 15.2377C20.4675 16.1571 21.2825 16.8582 21.9763 17.4553C23.2525 18.5535 23.7346 19.0545 23.7346 19.9642C23.7346 21.6339 22.307 22.9922 20.5527 22.9922Z" fill="#73956F"/>
<path d="M71.892 42C71.268 41.04 70.548 40.032 69.732 38.976C68.916 37.92 68.052 36.9 67.14 35.916C66.252 34.932 65.328 33.996 64.368 33.108C63.408 32.22 62.46 31.452 61.524 30.804V42H56.988V17.052H61.524V27.348C62.316 26.556 63.144 25.716 64.008 24.828C64.872 23.916 65.724 23.004 66.564 22.092C67.428 21.156 68.244 20.256 69.012 19.392C69.78 18.528 70.476 17.748 71.1 17.052H76.536C75.744 17.964 74.904 18.912 74.016 19.896C73.128 20.88 72.216 21.876 71.28 22.884C70.344 23.868 69.396 24.852 68.436 25.836C67.5 26.82 66.576 27.756 65.664 28.644C66.672 29.412 67.692 30.312 68.724 31.344C69.78 32.352 70.812 33.444 71.82 34.62C72.828 35.772 73.788 36.984 74.7 38.256C75.636 39.504 76.488 40.752 77.256 42H71.892ZM82.4802 29.508C82.4802 30.876 82.6482 32.124 82.9842 33.252C83.3202 34.356 83.8002 35.304 84.4242 36.096C85.0722 36.864 85.8522 37.464 86.7642 37.896C87.6762 38.328 88.7082 38.544 89.8602 38.544C90.9882 38.544 92.0082 38.328 92.9202 37.896C93.8322 37.464 94.6002 36.864 95.2242 36.096C95.8722 35.304 96.3642 34.356 96.7002 33.252C97.0362 32.124 97.2042 30.876 97.2042 29.508C97.2042 28.14 97.0362 26.904 96.7002 25.8C96.3642 24.672 95.8722 23.724 95.2242 22.956C94.6002 22.164 93.8322 21.552 92.9202 21.12C92.0082 20.688 90.9882 20.472 89.8602 20.472C88.7082 20.472 87.6762 20.688 86.7642 21.12C85.8522 21.552 85.0722 22.164 84.4242 22.956C83.8002 23.748 83.3202 24.696 82.9842 25.8C82.6482 26.904 82.4802 28.14 82.4802 29.508ZM101.956 29.508C101.956 31.644 101.632 33.528 100.984 35.16C100.36 36.792 99.4962 38.16 98.3922 39.264C97.3122 40.344 96.0402 41.16 94.5762 41.712C93.1122 42.264 91.5522 42.54 89.8962 42.54C88.2402 42.54 86.6682 42.264 85.1802 41.712C83.7162 41.16 82.4322 40.344 81.3282 39.264C80.2482 38.16 79.3842 36.792 78.7362 35.16C78.0882 33.528 77.7642 31.644 77.7642 29.508C77.7642 27.372 78.0882 25.5 78.7362 23.892C79.3842 22.26 80.2602 20.892 81.3642 19.788C82.4922 18.684 83.7882 17.856 85.2522 17.304C86.7162 16.752 88.2642 16.476 89.8962 16.476C91.5282 16.476 93.0762 16.752 94.5402 17.304C96.0042 17.856 97.2762 18.684 98.3562 19.788C99.4602 20.892 100.336 22.26 100.984 23.892C101.632 25.5 101.956 27.372 101.956 29.508ZM122.901 17.052V20.976H115.233V42H110.661V20.976H102.993V17.052H122.901ZM125.821 42V17.052H141.841V20.904H130.357V27.06H140.581V30.84H130.357V38.148H142.705V42H125.821ZM155.879 20.94C155.807 22.572 155.723 24.24 155.627 25.944C155.531 27.624 155.351 29.256 155.087 30.84C154.847 32.4 154.487 33.876 154.007 35.268C153.527 36.66 152.867 37.884 152.027 38.94C151.187 39.972 150.131 40.8 148.859 41.424C147.611 42.048 146.075 42.384 144.251 42.432L143.747 38.472C144.611 38.376 145.367 38.208 146.015 37.968C146.663 37.728 147.227 37.416 147.707 37.032C148.187 36.624 148.607 36.132 148.967 35.556C149.327 34.956 149.639 34.26 149.903 33.468C150.551 31.596 150.983 29.256 151.199 26.448C151.415 23.64 151.523 20.508 151.523 17.052H167.111V42H162.539V20.94H155.879ZM191.022 34.152C191.022 36.816 190.014 38.844 187.998 40.236C186.006 41.604 183.198 42.288 179.574 42.288C178.566 42.288 177.426 42.228 176.154 42.108C174.906 41.988 173.706 41.796 172.554 41.532V17.052H177.09V26.016C177.498 25.968 177.882 25.944 178.242 25.944C178.602 25.944 178.974 25.944 179.358 25.944C187.134 25.944 191.022 28.68 191.022 34.152ZM179.034 29.832C178.746 29.832 178.434 29.832 178.098 29.832C177.762 29.832 177.426 29.856 177.09 29.904V38.328C177.426 38.352 177.81 38.376 178.242 38.4C178.698 38.4 179.238 38.4 179.862 38.4C180.702 38.4 181.506 38.34 182.274 38.22C183.066 38.076 183.75 37.848 184.326 37.536C184.926 37.2 185.406 36.768 185.766 36.24C186.126 35.688 186.306 34.992 186.306 34.152C186.306 33.312 186.126 32.616 185.766 32.064C185.43 31.512 184.938 31.068 184.29 30.732C183.666 30.396 182.91 30.168 182.022 30.048C181.134 29.904 180.138 29.832 179.034 29.832ZM199.296 17.052V38.148H207.504V17.052H212.076V38.148H220.284V17.052H224.82V38.148H228.564V48.66H224.208V42H194.76V17.052H199.296ZM231.626 42V17.052H236.126V33.612C236.942 32.316 237.866 30.924 238.898 29.436C239.954 27.924 241.034 26.424 242.138 24.936C243.266 23.448 244.382 22.02 245.486 20.652C246.59 19.26 247.622 18.06 248.582 17.052H252.29V42H247.826V24.144C246.818 25.344 245.75 26.7 244.622 28.212C243.518 29.7 242.426 31.248 241.346 32.856C240.266 34.44 239.222 36.024 238.214 37.608C237.206 39.168 236.294 40.632 235.478 42H231.626ZM272.638 42C272.014 41.04 271.294 40.032 270.478 38.976C269.662 37.92 268.798 36.9 267.886 35.916C266.998 34.932 266.074 33.996 265.114 33.108C264.154 32.22 263.206 31.452 262.27 30.804V42H257.734V17.052H262.27V27.348C263.062 26.556 263.89 25.716 264.754 24.828C265.618 23.916 266.47 23.004 267.31 22.092C268.174 21.156 268.99 20.256 269.758 19.392C270.526 18.528 271.222 17.748 271.846 17.052H277.282C276.49 17.964 275.65 18.912 274.762 19.896C273.874 20.88 272.962 21.876 272.026 22.884C271.09 23.868 270.142 24.852 269.182 25.836C268.246 26.82 267.322 27.756 266.41 28.644C267.418 29.412 268.438 30.312 269.47 31.344C270.526 32.352 271.558 33.444 272.566 34.62C273.574 35.772 274.534 36.984 275.446 38.256C276.382 39.504 277.234 40.752 278.002 42H272.638Z" fill="#ffffff"/>
</svg>
