<svg width="448" height="168" viewBox="0 0 448 168" fill="none" xmlns="http://www.w3.org/2000/svg">
<path fill-rule="evenodd" clip-rule="evenodd" d="M181.328 0.710684C175.875 2.44788 171.202 7.2278 169.596 12.7083C169.308 13.6929 169.157 15.9931 169.079 26H181.279C181.383 16.6487 181.57 16.0939 181.981 15.3985C182.914 13.8199 184.318 12.7514 185.979 12.3558C186.677 12.1889 206.468 12.0794 229.956 12.112C271.932 12.1701 272.685 12.184 273.941 12.9213C275.585 13.8863 276.578 15.2316 277.007 17.0757C277.019 17.1274 277.028 17.1398 277.035 17.1304C277.012 17.7114 276.978 19.7525 277.007 26H288.695C288.736 18.7358 288.797 14.8379 288.852 12.8802C288.859 12.9033 288.866 12.9262 288.873 12.9492C289.068 13.6501 288.974 8.57625 288.852 12.8802C288.831 12.8106 288.808 12.7394 288.781 12.6598C288.755 12.5813 288.727 12.4945 288.695 12.3929C286.969 6.86589 282.205 2.19585 276.64 0.576793C274.823 0.0479829 269.555 -0.0153987 229.041 0.00260334C185.926 0.0217305 183.371 0.05961 181.328 0.710684ZM277.052 16.9501C277.054 17.0006 277.049 17.1112 277.035 17.1304C277.044 16.9093 277.051 16.8997 277.052 16.9501ZM181.09 95.9933H169.006C169.028 127.944 169.144 129.767 169.713 131.588C171.439 137.115 176.203 141.785 181.768 143.404C183.468 143.899 186.117 143.999 197.527 143.999H211.243L211.064 147.707C210.817 152.823 209.545 154.83 206.034 155.641C205.222 155.829 198.801 155.987 191.765 155.993C179.671 156.002 178.904 156.044 177.745 156.748C175.909 157.864 175.023 159.573 175.023 162.001C175.023 164.428 175.909 166.138 177.745 167.253C178.913 167.964 179.667 167.999 193.672 168C205.984 168.001 208.704 167.905 210.416 167.407C215.981 165.788 220.745 161.118 222.47 155.591C223.009 153.867 223.184 152.168 223.184 148.653V143.999H229.204H235.224V148.653C235.224 152.168 235.399 153.867 235.937 155.591C237.663 161.118 242.427 165.788 247.992 167.407C249.704 167.905 252.424 168.001 264.736 168C278.741 167.999 279.495 167.964 280.663 167.253C282.499 166.138 283.385 164.428 283.385 162.001C283.385 159.573 282.499 157.864 280.663 156.748C279.504 156.044 278.737 156.002 266.643 155.993C259.607 155.987 253.186 155.829 252.374 155.641C248.863 154.83 247.591 152.823 247.344 147.707L247.165 143.999H260.881C272.291 143.999 274.94 143.899 276.64 143.404C282.205 141.785 286.969 137.115 288.695 131.588C289.066 130.401 289.036 127.185 288.93 115.777C288.899 112.405 288.916 111.477 288.942 110.074C288.975 108.263 289.023 105.662 289 96H277C276.991 107.619 277.039 114.993 277.07 119.62C277.103 124.663 277.114 126.444 277.007 126.905C276.193 130.405 274.179 131.673 269.047 131.919L265.326 132.098V121.427C265.326 112.793 265.212 110.367 264.73 108.719C263.105 103.173 258.42 98.4239 252.875 96.704C250.74 96.0417 249.131 95.9933 229.204 95.9933C209.277 95.9933 207.667 96.0417 205.533 96.704C199.988 98.4239 195.302 103.173 193.678 108.719C193.196 110.367 193.082 112.793 193.082 121.427V132.098L189.361 131.919C183.877 131.656 181.731 130.063 181.235 125.884C181.147 125.146 181.094 113.068 181.09 95.9933ZM248.177 108.354C250.027 108.781 251.377 109.771 252.345 111.409C253.035 112.577 253.108 113.484 253.22 122.34L253.342 131.997H229.204H205.066L205.188 122.34C205.3 113.484 205.373 112.577 206.063 111.409C206.997 109.829 208.402 108.761 210.06 108.37C211.838 107.952 246.374 107.937 248.177 108.354Z" fill="#73956F"/>
<path d="M107.254 77H100.247V41.9902H107.254V59.4951L120.291 41.9902H128.25L117.19 56.7607L128.25 77H120.291L112.601 62.8398L107.254 69.9932V77ZM164.627 59.6416C164.627 61.3018 164.407 62.9049 163.968 64.4512C163.545 65.9811 162.942 67.4215 162.161 68.7725C161.38 70.1071 160.436 71.3278 159.329 72.4346C158.222 73.5413 157.002 74.4935 155.667 75.291C154.332 76.0723 152.892 76.6745 151.346 77.0977C149.799 77.5371 148.196 77.7568 146.536 77.7568C144.876 77.7568 143.273 77.5371 141.727 77.0977C140.197 76.6745 138.756 76.0723 137.405 75.291C136.071 74.4935 134.85 73.5413 133.743 72.4346C132.636 71.3278 131.684 70.1071 130.887 68.7725C130.105 67.4215 129.495 65.9811 129.056 64.4512C128.632 62.9049 128.421 61.3018 128.421 59.6416C128.421 57.9814 128.632 56.3783 129.056 54.832C129.495 53.2858 130.105 51.8454 130.887 50.5107C131.684 49.1761 132.636 47.9554 133.743 46.8486C134.85 45.7419 136.071 44.7979 137.405 44.0166C138.756 43.2354 140.197 42.6331 141.727 42.21C143.273 41.7705 144.876 41.5508 146.536 41.5508C148.196 41.5508 149.799 41.7705 151.346 42.21C152.892 42.6331 154.332 43.2354 155.667 44.0166C157.002 44.7979 158.222 45.7419 159.329 46.8486C160.436 47.9554 161.38 49.1761 162.161 50.5107C162.942 51.8454 163.545 53.2858 163.968 54.832C164.407 56.3783 164.627 57.9814 164.627 59.6416ZM157.669 59.6416C157.669 58.1117 157.376 56.6712 156.79 55.3203C156.204 53.9531 155.407 52.7731 154.397 51.7803C153.405 50.7712 152.225 49.9736 150.857 49.3877C149.507 48.8018 148.066 48.5088 146.536 48.5088C144.99 48.5088 143.541 48.8018 142.19 49.3877C140.84 49.9736 139.66 50.7712 138.65 51.7803C137.641 52.7731 136.844 53.9531 136.258 55.3203C135.672 56.6712 135.379 58.1117 135.379 59.6416C135.379 61.1715 135.672 62.612 136.258 63.9629C136.844 65.2975 137.641 66.4694 138.65 67.4785C139.66 68.4876 140.84 69.2852 142.19 69.8711C143.541 70.457 144.99 70.75 146.536 70.75C148.066 70.75 149.507 70.457 150.857 69.8711C152.225 69.2852 153.405 68.4876 154.397 67.4785C155.407 66.4694 156.204 65.2975 156.79 63.9629C157.376 62.612 157.669 61.1715 157.669 59.6416ZM182.815 77H175.833V48.9971H165.311V41.9902H193.313V48.9971H182.815V77ZM221.023 77H197.024V41.9902H221.023V48.9971H204.031V56.0039H215.53V63.0107H204.031V69.9932H221.023V77ZM250.442 77H225.931V41.9902H232.938V69.9932H250.442V77ZM251.321 52.4883C251.321 51.0397 251.598 49.6807 252.151 48.4111C252.705 47.1416 253.453 46.0348 254.397 45.0908C255.358 44.1305 256.473 43.3737 257.742 42.8203C259.012 42.2669 260.371 41.9902 261.819 41.9902H277.884V48.9971H261.819C261.331 48.9971 260.875 49.0866 260.452 49.2656C260.029 49.4447 259.655 49.6969 259.329 50.0225C259.02 50.3317 258.776 50.6979 258.597 51.1211C258.418 51.5443 258.328 52 258.328 52.4883C258.328 52.9766 258.418 53.4404 258.597 53.8799C258.776 54.3031 259.02 54.6774 259.329 55.0029C259.655 55.3122 260.029 55.5563 260.452 55.7354C260.875 55.9144 261.331 56.0039 261.819 56.0039H268.826C270.275 56.0039 271.634 56.2806 272.903 56.834C274.189 57.3711 275.304 58.1198 276.248 59.0801C277.208 60.0241 277.957 61.139 278.494 62.4248C279.048 63.6943 279.324 65.0534 279.324 66.502C279.324 67.9505 279.048 69.3096 278.494 70.5791C277.957 71.8486 277.208 72.9635 276.248 73.9238C275.304 74.8678 274.189 75.6165 272.903 76.1699C271.634 76.7233 270.275 77 268.826 77H253.274V69.9932H268.826C269.314 69.9932 269.77 69.9036 270.193 69.7246C270.617 69.5456 270.983 69.3014 271.292 68.9922C271.618 68.6667 271.87 68.2923 272.049 67.8691C272.228 67.446 272.317 66.9902 272.317 66.502C272.317 66.0137 272.228 65.5579 272.049 65.1348C271.87 64.7116 271.618 64.3454 271.292 64.0361C270.983 63.7106 270.617 63.4583 270.193 63.2793C269.77 63.1003 269.314 63.0107 268.826 63.0107H261.819C260.371 63.0107 259.012 62.734 257.742 62.1807C256.473 61.6273 255.358 60.8786 254.397 59.9346C253.453 58.9743 252.705 57.8594 252.151 56.5898C251.598 55.304 251.321 53.9368 251.321 52.4883ZM290.945 77H283.938V41.9902H290.945V56.0039H304.935V41.9902H311.941V77H304.935V63.0107H290.945V77ZM325.467 77H318.46V41.9902H325.467V77ZM338.992 77H331.985V41.9902H338.992V59.4951L352.029 41.9902H359.988L348.929 56.7607L359.988 77H352.029L344.339 62.8398L338.992 69.9932V77Z" fill="#F5F5F5"/>
</svg>
