<svg width="129" height="129" viewBox="0 0 129 129" fill="none" xmlns="http://www.w3.org/2000/svg">
<g clip-path="url(#clip0_17_166)">
<path d="M66.1399 44.39H118.14C123.654 44.39 128.14 48.8763 128.14 54.39V82.39C128.14 87.9038 123.654 92.39 118.14 92.39H90.1399V100.39C90.1399 101.199 89.6536 101.928 88.9054 102.238C88.6574 102.34 88.3976 102.39 88.1399 102.39C87.6204 102.39 87.1086 102.187 86.7259 101.804L77.3116 92.39H66.1399C60.6261 92.39 56.1399 87.9038 56.1399 82.39V54.39C56.1399 48.8763 60.6261 44.39 66.1399 44.39Z" fill="#B9BBC1"/>
<path d="M110.14 58.39H116.14C117.245 58.39 118.14 57.4945 118.14 56.39C118.14 55.2855 117.245 54.39 116.14 54.39H110.14C109.034 54.39 108.14 55.2855 108.14 56.39C108.14 57.4945 109.034 58.39 110.14 58.39Z" fill="#8B8996"/>
<path d="M68.1399 58.39H102.14C103.245 58.39 104.14 57.4945 104.14 56.39C104.14 55.2855 103.245 54.39 102.14 54.39H68.1399C67.0344 54.39 66.1399 55.2855 66.1399 56.39C66.1399 57.4945 67.0344 58.39 68.1399 58.39Z" fill="#8B8996"/>
<path d="M68.1399 66.39H116.14C117.245 66.39 118.14 65.4945 118.14 64.39C118.14 63.2855 117.245 62.39 116.14 62.39H68.1399C67.0344 62.39 66.1399 63.2855 66.1399 64.39C66.1399 65.4945 67.0344 66.39 68.1399 66.39Z" fill="#8B8996"/>
<path d="M68.1399 74.39H74.1399C75.2454 74.39 76.1399 73.4945 76.1399 72.39C76.1399 71.2855 75.2454 70.39 74.1399 70.39H68.1399C67.0344 70.39 66.1399 71.2855 66.1399 72.39C66.1399 73.4945 67.0344 74.39 68.1399 74.39Z" fill="#8B8996"/>
<path d="M82.1399 74.39H116.14C117.245 74.39 118.14 73.4945 118.14 72.39C118.14 71.2855 117.245 70.39 116.14 70.39H82.1399C81.0344 70.39 80.1399 71.2855 80.1399 72.39C80.1399 73.4945 81.0344 74.39 82.1399 74.39Z" fill="#8B8996"/>
<path d="M68.1399 82.39H116.14C117.245 82.39 118.14 81.4945 118.14 80.39C118.14 79.2855 117.245 78.39 116.14 78.39H68.1399C67.0344 78.39 66.1399 79.2855 66.1399 80.39C66.1399 81.4945 67.0344 82.39 68.1399 82.39Z" fill="#8B8996"/>
<path d="M62.1399 26.39H10.1399C4.62614 26.39 0.139893 30.8763 0.139893 36.39V64.39C0.139893 69.9038 4.62614 74.39 10.1399 74.39H38.1399V82.39C38.1399 83.1985 38.6261 83.928 39.3744 84.2378C39.6224 84.3403 39.8821 84.39 40.1399 84.39C40.6594 84.39 41.1711 84.187 41.5539 83.804L50.9679 74.39H62.1399C67.6536 74.39 72.1399 69.9038 72.1399 64.39V36.39C72.1399 30.8763 67.6536 26.39 62.1399 26.39Z" fill="#D8DCE1"/>
<path d="M18.1399 40.39H12.1399C11.0344 40.39 10.1399 39.4945 10.1399 38.39C10.1399 37.2855 11.0344 36.39 12.1399 36.39H18.1399C19.2454 36.39 20.1399 37.2855 20.1399 38.39C20.1399 39.4945 19.2454 40.39 18.1399 40.39Z" fill="#8B8996"/>
<path d="M60.1399 40.39H26.1399C25.0344 40.39 24.1399 39.4945 24.1399 38.39C24.1399 37.2855 25.0344 36.39 26.1399 36.39H60.1399C61.2454 36.39 62.1399 37.2855 62.1399 38.39C62.1399 39.4945 61.2454 40.39 60.1399 40.39Z" fill="#8B8996"/>
<path d="M60.1399 48.39H12.1399C11.0344 48.39 10.1399 47.4945 10.1399 46.39C10.1399 45.2855 11.0344 44.39 12.1399 44.39H60.1399C61.2454 44.39 62.1399 45.2855 62.1399 46.39C62.1399 47.4945 61.2454 48.39 60.1399 48.39Z" fill="#8B8996"/>
<path d="M60.1399 56.39H54.1399C53.0344 56.39 52.1399 55.4945 52.1399 54.39C52.1399 53.2855 53.0344 52.39 54.1399 52.39H60.1399C61.2454 52.39 62.1399 53.2855 62.1399 54.39C62.1399 55.4945 61.2454 56.39 60.1399 56.39Z" fill="#8B8996"/>
<path d="M46.1399 56.39H12.1399C11.0344 56.39 10.1399 55.4945 10.1399 54.39C10.1399 53.2855 11.0344 52.39 12.1399 52.39H46.1399C47.2454 52.39 48.1399 53.2855 48.1399 54.39C48.1399 55.4945 47.2454 56.39 46.1399 56.39Z" fill="#8B8996"/>
<path d="M60.1399 64.39H12.1399C11.0344 64.39 10.1399 63.4945 10.1399 62.39C10.1399 61.2855 11.0344 60.39 12.1399 60.39H60.1399C61.2454 60.39 62.1399 61.2855 62.1399 62.39C62.1399 63.4945 61.2454 64.39 60.1399 64.39Z" fill="#8B8996"/>
</g>
<defs>
<clipPath id="clip0_17_166">
<rect width="128" height="128" fill="white" transform="translate(0.139893 0.390015)"/>
</clipPath>
</defs>
</svg>
