<svg width="129" height="129" viewBox="0 0 129 129" fill="none" xmlns="http://www.w3.org/2000/svg">
<g clip-path="url(#clip0_17_231)">
<path d="M128.03 115.867H33.9197V1.47534H101.699L128.03 27.8068V115.867Z" fill="#E8E8E8"/>
<path d="M101.698 27.8068H128.03L101.698 1.47534V27.8068Z" fill="#CCCED0"/>
<path d="M94.1404 127.304H0.0300293V12.9126H67.8089L94.1404 39.2441V127.304Z" fill="#DCDDDE"/>
<path d="M61.669 35.2498H9.38086V39.244H61.669V35.2498Z" fill="#4C5B6B"/>
<path d="M84.7895 52.3168H9.38086V56.311H84.7895V52.3168Z" fill="#A4A9AD"/>
<path d="M73.2886 61.757H9.38086V65.7512H73.2886V61.757Z" fill="#A4A9AD"/>
<path d="M84.7895 71.1971H9.38086V75.1914H84.7895V71.1971Z" fill="#A4A9AD"/>
<path d="M73.2886 80.6373H9.38086V84.6316H73.2886V80.6373Z" fill="#A4A9AD"/>
<path d="M84.7895 90.0775H9.38086V94.0718H84.7895V90.0775Z" fill="#A4A9AD"/>
<path d="M73.2886 99.5177H9.38086V103.512H73.2886V99.5177Z" fill="#A4A9AD"/>
<path d="M84.7895 108.958H9.38086V112.952H84.7895V108.958Z" fill="#A4A9AD"/>
<path d="M67.8088 39.2441H94.1403L67.8088 12.9126V39.2441Z" fill="#C6C8CB"/>
</g>
<defs>
<clipPath id="clip0_17_231">
<rect width="128" height="128" fill="white" transform="translate(0.0300293 0.390015)"/>
</clipPath>
</defs>
</svg>
