<svg width="129" height="129" viewBox="0 0 129 129" fill="none" xmlns="http://www.w3.org/2000/svg">
<g clip-path="url(#clip0_17_76)">
<path d="M104.25 0.390015H16.25C14.045 0.390015 12.25 2.18401 12.25 4.39001V116.39C12.25 118.595 14.045 120.39 16.25 120.39H104.25C106.455 120.39 108.25 118.595 108.25 116.39V4.39001C108.25 2.18401 106.455 0.390015 104.25 0.390015Z" fill="#B9BBC1"/>
<path d="M96.25 8.39001H8.25C6.045 8.39001 4.25 10.184 4.25 12.39V124.39C4.25 126.595 6.045 128.39 8.25 128.39H96.25C98.455 128.39 100.25 126.595 100.25 124.39V12.39C100.25 10.184 98.455 8.39001 96.25 8.39001Z" fill="#D8DCE1"/>
<path d="M82.25 30.39H18.25C17.1445 30.39 16.25 29.4945 16.25 28.39C16.25 27.2855 17.1445 26.39 18.25 26.39H82.25C83.3555 26.39 84.25 27.2855 84.25 28.39C84.25 29.4945 83.3555 30.39 82.25 30.39Z" fill="#5C546A"/>
<path d="M82.25 54.39H18.25C17.1445 54.39 16.25 53.4955 16.25 52.39C16.25 51.2845 17.1445 50.39 18.25 50.39H82.25C83.3555 50.39 84.25 51.2845 84.25 52.39C84.25 53.4955 83.3555 54.39 82.25 54.39Z" fill="#8B8996"/>
<path d="M82.25 110.39H18.25C17.1445 110.39 16.25 109.496 16.25 108.39C16.25 107.285 17.1445 106.39 18.25 106.39H82.25C83.3555 106.39 84.25 107.285 84.25 108.39C84.25 109.496 83.3555 110.39 82.25 110.39Z" fill="#B9BBC1"/>
<path d="M82.25 78.39H18.25C17.1445 78.39 16.25 77.4955 16.25 76.39C16.25 75.2845 17.1445 74.39 18.25 74.39H82.25C83.3555 74.39 84.25 75.2845 84.25 76.39C84.25 77.4955 83.3555 78.39 82.25 78.39Z" fill="#8B8996"/>
<path d="M34.25 38.39H18.25C17.1445 38.39 16.25 37.4945 16.25 36.39C16.25 35.2855 17.1445 34.39 18.25 34.39H34.25C35.3555 34.39 36.25 35.2855 36.25 36.39C36.25 37.4945 35.3555 38.39 34.25 38.39Z" fill="#5C546A"/>
<path d="M82.25 38.39H42.25C41.1445 38.39 40.25 37.4945 40.25 36.39C40.25 35.2855 41.1445 34.39 42.25 34.39H82.25C83.3555 34.39 84.25 35.2855 84.25 36.39C84.25 37.4945 83.3555 38.39 82.25 38.39Z" fill="#5C546A"/>
<path d="M66.25 46.39H18.25C17.1445 46.39 16.25 45.4955 16.25 44.39C16.25 43.2845 17.1445 42.39 18.25 42.39H66.25C67.3555 42.39 68.25 43.2845 68.25 44.39C68.25 45.4955 67.3555 46.39 66.25 46.39Z" fill="#8B8996"/>
<path d="M82.25 46.39H74.25C73.1445 46.39 72.25 45.4955 72.25 44.39C72.25 43.2845 73.1445 42.39 74.25 42.39H82.25C83.3555 42.39 84.25 43.2845 84.25 44.39C84.25 45.4955 83.3555 46.39 82.25 46.39Z" fill="#8B8996"/>
<path d="M82.25 102.39H18.25C17.1445 102.39 16.25 101.496 16.25 100.39C16.25 99.2845 17.1445 98.39 18.25 98.39H82.25C83.3555 98.39 84.25 99.2845 84.25 100.39C84.25 101.496 83.3555 102.39 82.25 102.39Z" fill="#B9BBC1"/>
<path d="M34.25 86.39H18.25C17.1445 86.39 16.25 85.4955 16.25 84.39C16.25 83.2845 17.1445 82.39 18.25 82.39H34.25C35.3555 82.39 36.25 83.2845 36.25 84.39C36.25 85.4955 35.3555 86.39 34.25 86.39Z" fill="#8B8996"/>
<path d="M82.25 86.39H42.25C41.1445 86.39 40.25 85.4955 40.25 84.39C40.25 83.2845 41.1445 82.39 42.25 82.39H82.25C83.3555 82.39 84.25 83.2845 84.25 84.39C84.25 85.4955 83.3555 86.39 82.25 86.39Z" fill="#B9BBC1"/>
<path d="M66.25 94.39H18.25C17.1445 94.39 16.25 93.4955 16.25 92.39C16.25 91.2845 17.1445 90.39 18.25 90.39H66.25C67.3555 90.39 68.25 91.2845 68.25 92.39C68.25 93.4955 67.3555 94.39 66.25 94.39Z" fill="#B9BBC1"/>
<path d="M82.25 94.39H74.25C73.1445 94.39 72.25 93.4955 72.25 92.39C72.25 91.2845 73.1445 90.39 74.25 90.39H82.25C83.3555 90.39 84.25 91.2845 84.25 92.39C84.25 93.4955 83.3555 94.39 82.25 94.39Z" fill="#B9BBC1"/>
<path d="M44.25 62.39H18.25C17.1445 62.39 16.25 61.4955 16.25 60.39C16.25 59.2845 17.1445 58.39 18.25 58.39H44.25C45.3555 58.39 46.25 59.2845 46.25 60.39C46.25 61.4955 45.3555 62.39 44.25 62.39Z" fill="#8B8996"/>
<path d="M82.25 62.39H52.25C51.1445 62.39 50.25 61.4955 50.25 60.39C50.25 59.2845 51.1445 58.39 52.25 58.39H82.25C83.3555 58.39 84.25 59.2845 84.25 60.39C84.25 61.4955 83.3555 62.39 82.25 62.39Z" fill="#8B8996"/>
<path d="M60.25 70.39H18.25C17.1445 70.39 16.25 69.4955 16.25 68.39C16.25 67.2845 17.1445 66.39 18.25 66.39H60.25C61.3555 66.39 62.25 67.2845 62.25 68.39C62.25 69.4955 61.3555 70.39 60.25 70.39Z" fill="#8B8996"/>
<path d="M82.25 70.39H68.25C67.1445 70.39 66.25 69.4955 66.25 68.39C66.25 67.2845 67.1445 66.39 68.25 66.39H82.25C83.3555 66.39 84.25 67.2845 84.25 68.39C84.25 69.4955 83.3555 70.39 82.25 70.39Z" fill="#8B8996"/>
<path d="M112.25 112.39L116.334 126.005C116.904 127.905 119.595 127.905 120.165 126.005L124.25 112.39H112.25Z" fill="#8B8996"/>
<path d="M118.25 50.39C121.564 50.39 124.25 47.7037 124.25 44.39C124.25 41.0763 121.564 38.39 118.25 38.39C114.936 38.39 112.25 41.0763 112.25 44.39C112.25 47.7037 114.936 50.39 118.25 50.39Z" fill="#8B8996"/>
<path d="M124.25 44.39H112.25V112.39H124.25V44.39Z" fill="#FFD200"/>
<path d="M118.25 44.39H112.25V112.39H118.25V44.39Z" fill="#FF9600"/>
<path d="M114.65 120.39L116.334 126.005C116.904 127.905 119.596 127.905 120.166 126.005L121.85 120.39H114.65Z" fill="#5C546A"/>
</g>
<defs>
<clipPath id="clip0_17_76">
<rect width="128" height="128" fill="white" transform="translate(0.25 0.390015)"/>
</clipPath>
</defs>
</svg>
